<?xml version="1.0" standalone="no"?>
<!DOCTYPE svg PUBLIC "-//W3C//DTD SVG 20010904//EN"
 "http://www.w3.org/TR/2001/REC-SVG-20010904/DTD/svg10.dtd">
<svg version="1.0" xmlns="http://www.w3.org/2000/svg"
 width="2134.000000pt" height="2134.000000pt" viewBox="0 0 2134.000000 2134.000000"
 preserveAspectRatio="xMidYMid meet">
<metadata>
Created by potrace 1.11, written by Peter Selinger 2001-2013
</metadata>
<g transform="translate(0.000000,2134.000000) scale(0.100000,-0.100000)"
fill="#000000" stroke="none">
<path d="M10357 21334 c-1 -1 -72 -5 -157 -8 -85 -4 -184 -8 -220 -11 -205
-15 -292 -22 -365 -30 -27 -3 -75 -8 -105 -11 -30 -2 -66 -6 -80 -9 -14 -2
-56 -7 -95 -11 -38 -3 -72 -7 -75 -9 -3 -2 -37 -6 -75 -10 -39 -4 -73 -9 -77
-11 -3 -2 -27 -7 -51 -9 -25 -3 -53 -7 -63 -9 -11 -2 -39 -7 -64 -11 -66 -10
-93 -14 -116 -19 -12 -2 -39 -7 -60 -10 -22 -4 -70 -13 -109 -21 -38 -8 -81
-16 -95 -18 -14 -3 -70 -15 -125 -27 -55 -12 -107 -23 -117 -25 -146 -30 -562
-141 -758 -201 -255 -79 -672 -224 -775 -269 -16 -8 -93 -39 -170 -70 -294
-119 -961 -438 -1057 -506 -14 -11 -29 -19 -32 -19 -4 0 -64 -33 -134 -73 -70
-40 -138 -80 -152 -88 -14 -8 -27 -16 -30 -19 -3 -3 -17 -12 -32 -20 -140 -77
-527 -333 -765 -506 -81 -59 -150 -110 -153 -113 -3 -3 -52 -42 -110 -85 -58
-44 -130 -100 -160 -125 -30 -25 -61 -51 -70 -58 -28 -22 -245 -205 -250 -212
-3 -3 -23 -21 -45 -40 -116 -99 -385 -352 -549 -517 -85 -86 -305 -322 -376
-403 -30 -35 -62 -71 -71 -80 -9 -9 -64 -74 -123 -146 -60 -71 -117 -140 -127
-152 -54 -64 -238 -304 -324 -423 -107 -147 -431 -627 -455 -675 -8 -17 -18
-32 -21 -35 -3 -3 -37 -59 -76 -125 -262 -446 -478 -876 -674 -1342 -78 -187
-229 -585 -229 -606 0 -7 -3 -16 -6 -20 -6 -6 -81 -225 -89 -257 -2 -8 -15
-51 -29 -95 -91 -289 -224 -821 -272 -1095 -3 -14 -14 -72 -24 -130 -11 -58
-22 -118 -24 -135 -2 -16 -8 -57 -14 -90 -6 -33 -14 -84 -17 -114 -4 -30 -8
-63 -11 -74 -6 -34 -24 -169 -29 -227 -3 -30 -7 -68 -10 -85 -2 -16 -7 -59
-10 -95 -3 -36 -8 -83 -10 -105 -3 -22 -7 -74 -10 -115 -3 -41 -8 -102 -10
-135 -14 -186 -19 -382 -19 -740 0 -409 8 -631 30 -855 3 -36 7 -85 9 -110 6
-75 15 -163 20 -200 2 -19 7 -60 10 -90 4 -30 8 -66 10 -80 2 -14 7 -47 10
-75 3 -27 7 -61 10 -75 2 -14 7 -43 10 -65 3 -22 10 -69 16 -105 6 -36 13 -83
15 -105 3 -22 7 -46 10 -54 2 -8 7 -30 10 -50 2 -20 9 -56 14 -81 5 -25 12
-58 15 -75 3 -16 7 -39 9 -50 10 -49 49 -232 53 -250 3 -11 9 -39 13 -62 5
-23 17 -71 26 -105 9 -35 17 -70 19 -80 23 -118 159 -582 239 -818 25 -74 48
-144 51 -155 2 -11 9 -29 14 -40 5 -11 37 -94 71 -185 64 -168 136 -349 172
-430 12 -25 35 -79 53 -120 63 -146 322 -676 344 -705 5 -5 25 -41 46 -80 65
-121 97 -178 143 -255 24 -41 52 -88 62 -105 258 -451 758 -1134 1163 -1590
261 -294 654 -688 897 -900 30 -27 57 -51 60 -54 3 -3 34 -31 70 -61 36 -30
67 -57 70 -60 3 -3 55 -46 115 -96 747 -611 1538 -1104 2385 -1487 106 -48
315 -139 350 -152 19 -7 82 -32 140 -55 276 -111 631 -232 960 -327 85 -24
162 -46 170 -48 8 -2 87 -21 175 -44 176 -44 274 -67 350 -82 28 -6 59 -12 70
-15 11 -2 31 -6 45 -9 14 -2 48 -9 75 -15 76 -15 237 -44 305 -55 69 -11 220
-35 260 -40 25 -3 56 -8 70 -10 14 -2 50 -7 80 -10 30 -3 69 -8 85 -10 35 -5
86 -11 280 -30 22 -2 78 -7 125 -10 47 -4 108 -8 135 -10 307 -26 1209 -26
1450 0 22 2 85 7 140 11 55 3 106 7 115 9 8 1 51 6 95 10 79 6 94 8 185 19 25
3 65 8 90 11 25 3 56 7 70 10 14 2 50 7 80 10 30 3 78 10 105 15 28 5 67 12
88 15 89 12 113 16 127 20 8 3 33 7 55 11 22 3 130 24 240 46 110 22 211 42
224 45 14 2 28 6 31 8 4 2 20 7 36 9 50 10 66 13 194 46 69 18 132 33 140 35
165 40 574 168 919 289 94 33 434 168 505 201 30 14 57 25 60 25 2 0 83 35
178 79 233 105 516 247 718 359 25 14 70 38 100 55 85 47 403 237 515 309 214
136 567 381 648 450 18 15 35 28 39 28 4 0 13 6 20 13 7 7 54 44 103 82 489
378 1025 880 1435 1344 36 41 70 79 75 85 6 6 35 40 65 76 30 36 57 67 60 70
20 19 267 332 358 455 62 83 115 155 120 160 18 22 172 245 232 335 68 102
310 489 310 495 0 2 20 37 45 79 93 157 177 316 308 576 93 186 123 249 200
420 42 93 137 318 137 325 0 3 9 25 19 48 59 131 224 604 310 887 76 253 167
605 207 805 1 6 11 53 22 105 12 52 23 109 26 125 20 108 56 317 61 350 3 23
7 50 9 60 2 11 7 45 11 75 4 30 9 62 10 71 3 14 8 51 19 144 2 17 7 59 11 95
4 36 8 72 10 81 2 8 6 53 10 100 4 46 8 98 11 114 2 17 6 75 10 130 3 55 8
116 10 135 23 221 23 1097 0 1360 -2 25 -7 88 -10 140 -4 52 -9 113 -11 135
-2 22 -7 67 -11 100 -3 33 -8 82 -10 109 -3 42 -12 117 -29 241 -8 64 -46 312
-50 335 -3 13 -7 42 -11 65 -3 22 -15 87 -26 145 -11 58 -22 116 -24 130 -3
14 -14 68 -25 120 -11 52 -23 106 -25 120 -3 13 -21 90 -40 170 -20 80 -37
152 -39 160 -105 443 -361 1185 -559 1622 -13 29 -34 76 -46 103 -67 156 -257
540 -343 695 -17 30 -41 75 -55 100 -84 153 -294 504 -304 508 -5 2 -8 8 -8
13 0 5 -69 111 -152 235 -84 124 -157 233 -163 242 -5 8 -15 23 -22 31 -7 9
-63 84 -124 166 -153 206 -249 326 -425 535 -286 338 -683 746 -1030 1056
-428 384 -1035 839 -1473 1105 -40 24 -83 51 -96 59 -51 32 -323 190 -380 220
-33 18 -85 46 -115 63 -30 17 -136 71 -235 122 -540 273 -1075 489 -1665 672
-119 37 -129 39 -420 119 -51 14 -154 41 -190 49 -8 2 -85 19 -170 39 -152 34
-326 70 -385 80 -16 2 -55 9 -85 15 -30 6 -70 13 -90 16 -19 3 -46 7 -60 10
-24 5 -316 47 -415 60 -27 4 -61 8 -75 10 -14 2 -59 6 -100 10 -41 3 -88 8
-105 10 -57 8 -140 15 -235 20 -52 4 -106 8 -120 10 -73 12 -993 29 -1003 19z"/>
</g>
</svg>
